HIERARCHY
ROOT SpineBase
{
  OFFSET 0.000000 0.000000 0.000000
  CHANNELS 6 Xposition Yposition Zposition Zrotation Xrotation Yrotation
  JOINT SpineMid
  {
    OFFSET 0.000000 19.649183 0.000000
    CHANNELS 3 Zrotation Xrotation Yrotation
    JOINT SpineShoulder
    {
      OFFSET 0.146823 14.436432 -0.103328
      CHANNELS 3 Zrotation Xrotation Yrotation
      JOINT Neck
      {
        OFFSET 0.131277 4.852810 -0.172814
        CHANNELS 3 Zrotation Xrotation Yrotation
        JOINT Head
        {
          OFFSET -0.051825 -2.344845 -5.792154
          CHANNELS 3 Zrotation Xrotation Yrotation
          End Site
          {
            OFFSET 0 0 0
          }
        }
      }
      JOINT ShoulderLeft
      {
        OFFSET -11.996534 -0.918981 -5.027560
        CHANNELS 3 Zrotation Xrotation Yrotation
        JOINT ElbowLeft
        {
          OFFSET 2.582546 17.931623 2.373324
          CHANNELS 3 Zrotation Xrotation Yrotation
          JOINT WristLeft
          {
            OFFSET 16.271109 3.483227 -4.008501
            CHANNELS 3 Zrotation Xrotation Yrotation
            JOINT HandLeft
            {
              OFFSET -2.404304 3.183822 -2.078915
              CHANNELS 3 Zrotation Xrotation Yrotation
              JOINT HandTipLeft
              {
                OFFSET 0.725667 3.362596 0.501604
                CHANNELS 3 Zrotation Xrotation Yrotation
                End Site
                {
                  OFFSET 0 0 0
                }
              }
              JOINT ThumbLeft
              {
                OFFSET -0.232508 0.098126 -2.604043
                CHANNELS 3 Zrotation Xrotation Yrotation
                End Site
                {
                  OFFSET 0 0 0
                }
              }
            }
          }
        }
      }
      JOINT ShoulderRight
      {
        OFFSET 8.908002 10.163025 -1.973634
        CHANNELS 3 Zrotation Xrotation Yrotation
        JOINT ElbowRight
        {
          OFFSET 8.380727 -28.204787 -4.568246
          CHANNELS 3 Zrotation Xrotation Yrotation
          JOINT WristRight
          {
            OFFSET 9.493682 -25.729372 -10.801230
            CHANNELS 3 Zrotation Xrotation Yrotation
            JOINT HandRight
            {
              OFFSET 3.803794 -12.785117 -1.706671
              CHANNELS 3 Zrotation Xrotation Yrotation
              JOINT HandTipRight
              {
                OFFSET 2.019293 -0.571869 -2.368311
                CHANNELS 3 Zrotation Xrotation Yrotation
                End Site
                {
                  OFFSET 0 0 0
                }
              }
              JOINT ThumbRight
              {
                OFFSET 2.348971 -0.174275 -3.190188
                CHANNELS 3 Zrotation Xrotation Yrotation
                End Site
                {
                  OFFSET 0 0 0
                }
              }
            }
          }
        }
      }
    }
  }
  JOINT HipLeft
  {
    OFFSET -4.655269 -0.569915 -3.420692
    CHANNELS 3 Zrotation Xrotation Yrotation
    JOINT KneeLeft
    {
      OFFSET -7.662957 -4.584586 -36.481708
      CHANNELS 3 Zrotation Xrotation Yrotation
      JOINT AnkleLeft
      {
        OFFSET 4.097643 -34.132517 -0.656775
        CHANNELS 3 Zrotation Xrotation Yrotation
        JOINT FootLeft
        {
          OFFSET 1.035288 -2.898247 -8.920665
          CHANNELS 3 Zrotation Xrotation Yrotation
          End Site
          {
            OFFSET 0 0 0
          }
        }
      }
    }
  }
  JOINT HipRight
  {
    OFFSET 4.085337 1.966263 -1.495947
    CHANNELS 3 Zrotation Xrotation Yrotation
    JOINT KneeRight
    {
      OFFSET 24.935774 -10.751048 -15.021698
      CHANNELS 3 Zrotation Xrotation Yrotation
      JOINT AnkleRight
      {
        OFFSET -1.763772 -31.181301 -3.945818
        CHANNELS 3 Zrotation Xrotation Yrotation
        JOINT FootRight
        {
          OFFSET -0.685703 -2.771512 -9.729585
          CHANNELS 3 Zrotation Xrotation Yrotation
          End Site
          {
            OFFSET 0 0 0
          }
        }
      }
    }
  }
}
MOTION
Frames: 10
Frame Time: 0.033333
97.121372 22.845694 438.622628 8.093622 -3.726756 -3.367920 0.532770 -1.502260 3.847759 1.097353 -0.707146 0.399638 -173.193888 37.522850 169.028477 0.000000 0.000000 0.000000 -18.157934 7.843339 1.881000 93.603053 12.005096 -12.357038 -102.651989 18.707590 -0.440880 45.638405 -51.906550 14.702302 0.000000 0.000000 0.000000 0.000000 0.000000 0.000000 -74.709878 16.916798 34.553214 -154.257800 25.048250 -46.831874 32.597254 2.944789 92.591134 -99.975101 77.617072 -17.518383 0.000000 0.000000 0.000000 0.000000 0.000000 0.000000 -19.968932 26.269723 18.639477 -3.893738 -19.377214 -13.235617 -3.884144 -14.281562 44.654109 0.000000 0.000000 0.000000 41.490467 38.794657 -3.796317 -57.556188 -24.030043 -25.629712 1.542564 -5.558490 8.128724 0.000000 0.000000 0.000000
100.168089 16.666732 436.977220 9.084757 -3.834643 -0.366632 0.734781 -1.804263 0.931074 1.196414 -0.944694 0.475418 -158.253285 31.346196 160.227099 0.000000 0.000000 0.000000 -27.364585 9.730242 4.052566 118.884481 10.462258 -16.396173 -105.774531 16.152719 8.243801 22.798383 -55.291995 -5.812979 0.000000 0.000000 0.000000 0.000000 0.000000 0.000000 -87.295288 9.350353 34.980068 -134.302696 20.440872 -50.838924 36.303788 9.534699 110.497326 175.518553 68.909984 62.520536 0.000000 0.000000 0.000000 0.000000 0.000000 0.000000 -19.419995 28.598558 13.904031 -16.746344 -20.489713 -16.969432 9.955546 -23.989246 56.004836 0.000000 0.000000 0.000000 61.962126 42.246288 -17.142721 -75.114354 -25.521955 -34.889973 0.884737 -5.199957 10.095400 0.000000 0.000000 0.000000
102.158805 10.972084 435.966046 10.097131 -3.905024 -3.175286 0.921951 -1.951348 3.824544 1.282481 -1.144619 0.544074 -147.273260 26.883810 154.311302 0.000000 0.000000 0.000000 -36.011467 10.328964 6.308643 135.371142 9.630414 -17.744942 -108.533132 13.594369 9.247789 14.699821 -50.864264 -13.635473 0.000000 0.000000 0.000000 0.000000 0.000000 0.000000 -90.657098 -6.372820 16.260352 -106.801500 18.257281 -93.676723 33.176986 38.092330 -139.747669 133.561949 13.859745 114.781077 0.000000 0.000000 0.000000 0.000000 0.000000 0.000000 -21.666845 28.255509 15.740450 -53.023223 -16.006396 -30.480569 48.002913 -29.356215 57.776368 0.000000 0.000000 0.000000 73.461889 46.862290 -23.815689 -85.730036 -25.503510 -40.717962 1.058561 -3.526509 6.520574 0.000000 0.000000 0.000000
101.469848 7.535944 435.818402 10.740746 -3.664978 -3.153612 1.095929 -2.021690 3.825522 1.331106 -1.323943 0.600209 -144.127461 25.116865 152.519338 0.000000 0.000000 0.000000 -43.759668 9.561916 8.177752 143.770248 10.711386 -16.051253 -107.546128 14.532094 8.700954 11.319927 -47.620980 -16.861791 0.000000 0.000000 0.000000 0.000000 0.000000 0.000000 -83.329733 -16.275632 -0.114103 -59.971528 2.939837 175.613804 22.121018 7.392935 70.109713 179.717577 -65.574483 -166.641855 0.000000 0.000000 0.000000 0.000000 0.000000 0.000000 -21.686476 28.702873 13.448692 -77.732366 -11.037201 -38.666836 71.888767 -36.872042 46.394502 0.000000 0.000000 0.000000 75.373333 44.289697 -26.640233 -87.461176 -27.129569 -38.945121 0.538753 -1.897836 5.640172 0.000000 0.000000 0.000000
102.640355 5.838074 435.578615 10.746776 -2.916051 -4.102346 0.856214 -1.995142 4.700228 1.173134 -1.128499 0.558063 -142.352576 26.552222 150.882250 0.000000 0.000000 0.000000 -38.403598 9.765746 6.407848 133.481298 13.095188 -13.039772 -106.003076 16.747525 5.434050 22.399748 -45.944872 -9.479014 0.000000 0.000000 0.000000 0.000000 0.000000 0.000000 -95.724997 -24.240331 -12.811864 -32.277708 -15.260817 146.496138 35.619932 33.061078 -161.505901 -104.266346 -10.321772 -63.155307 0.000000 0.000000 0.000000 0.000000 0.000000 0.000000 -22.307499 27.715053 14.957463 -88.880856 -4.641026 -40.591846 78.123246 -43.531202 19.544412 0.000000 0.000000 0.000000 77.650221 46.324523 -26.757270 -90.296222 -26.624645 -41.498597 0.500985 -0.239508 5.359369 0.000000 0.000000 0.000000
101.882629 5.648577 436.109994 11.635143 -3.048550 -10.532867 0.999361 -1.808958 11.182137 1.123662 -1.042556 0.578115 -153.888769 29.581303 156.460914 0.000000 0.000000 0.000000 -33.370399 11.139597 4.903880 122.652203 11.972981 -13.665349 -106.349390 14.626435 4.832558 31.458023 -46.746913 -2.149853 0.000000 0.000000 0.000000 0.000000 0.000000 0.000000 -116.806008 -26.149644 -20.657594 -10.944449 -26.964276 118.477665 23.586232 37.150936 -104.629603 -108.794051 4.052058 -57.117493 0.000000 0.000000 0.000000 0.000000 0.000000 0.000000 -27.329670 27.075555 21.899600 -87.953841 -2.744653 -39.808799 70.861425 -45.742132 -18.409708 0.000000 0.000000 0.000000 70.091812 53.214204 -20.356730 -87.516112 -26.707424 -41.025226 1.000802 1.101796 3.611287 0.000000 0.000000 0.000000
104.136326 2.923505 435.776729 11.768561 -3.585263 -15.887022 1.130475 -1.597697 16.588041 1.142017 -0.962453 0.574210 -158.820093 30.545919 159.158168 0.000000 0.000000 0.000000 -26.140916 13.026982 2.921263 124.644392 12.578379 -15.861528 -114.266513 14.624989 3.349753 34.281606 -47.737609 -0.562489 0.000000 0.000000 0.000000 0.000000 0.000000 0.000000 -128.323362 -27.257702 -28.971183 -2.382314 -31.682200 99.632054 14.538380 34.183053 -61.530046 -115.445073 18.798702 -48.966148 0.000000 0.000000 0.000000 0.000000 0.000000 0.000000 -36.595950 28.392805 36.091519 -78.798539 4.067990 -40.576092 69.531926 -48.855893 -28.503516 0.000000 0.000000 0.000000 75.325229 61.407306 -22.670929 -91.929735 -25.520717 -45.628459 -0.282620 -1.998107 8.358350 0.000000 0.000000 0.000000
102.936741 0.076206 435.859579 12.000748 -3.529746 -11.724959 1.025299 -1.573691 12.419052 1.151207 -0.947277 0.580963 -172.358862 33.805622 166.411796 0.000000 0.000000 0.000000 -19.777716 13.493996 0.881605 123.178296 11.764939 -18.262342 -117.782935 11.338626 2.321945 27.179072 -44.111617 -5.485236 0.000000 0.000000 0.000000 0.000000 0.000000 0.000000 -132.370409 -25.556014 -24.495776 -1.944871 -30.729448 95.712277 15.618773 32.936516 -58.909163 -118.658759 26.896022 -42.472399 0.000000 0.000000 0.000000 0.000000 0.000000 0.000000 -42.615839 35.532893 40.166968 -59.231525 -0.133366 -42.349459 62.614289 -51.149259 -22.181874 0.000000 0.000000 0.000000 78.379757 54.347685 -27.213797 -92.547218 -27.343947 -43.021018 -1.458520 -10.296493 18.400065 0.000000 0.000000 0.000000
100.176900 1.674273 437.403006 12.088015 -4.767071 -25.149358 1.252222 -0.807738 25.919433 1.200137 -0.607680 0.541461 176.414231 35.463170 172.805003 0.000000 0.000000 0.000000 -24.273181 15.397698 2.175927 134.205590 13.946955 -17.373941 -123.504812 11.795848 -1.713794 30.737759 -37.921010 -5.139618 0.000000 0.000000 0.000000 0.000000 0.000000 0.000000 -126.260236 -25.237104 -19.089455 -4.888483 -23.361699 116.570880 20.302731 32.575832 -81.158419 -122.041056 35.004461 -33.558379 0.000000 0.000000 0.000000 0.000000 0.000000 0.000000 -52.957073 25.922464 57.980303 -26.275878 -20.556274 -36.980303 29.863551 -46.226019 -15.388088 0.000000 0.000000 0.000000 55.502891 66.830388 -5.996047 -84.217911 -27.689379 -40.016444 -0.662509 -18.952186 28.590908 0.000000 0.000000 0.000000
102.891715 1.631382 437.917364 12.114550 -5.182626 -29.203636 1.366697 -0.741145 30.025331 1.245499 -0.722136 0.563180 168.668518 36.173465 177.304118 0.000000 0.000000 0.000000 -15.414226 16.502904 -0.670351 135.306903 21.552316 -14.838266 -121.158912 20.756313 -0.057653 20.886702 -45.960571 -11.568119 0.000000 0.000000 0.000000 0.000000 0.000000 0.000000 -122.839930 -23.476082 -10.762623 -13.703849 -2.121498 152.906917 29.791114 29.415622 -137.552424 -126.681500 40.954318 -21.490474 0.000000 0.000000 0.000000 0.000000 0.000000 0.000000 -54.656622 20.384581 64.990190 -6.186004 -31.962955 -31.090595 9.421264 -32.347123 -3.292939 0.000000 0.000000 0.000000 49.569192 74.987380 2.605041 -86.697341 -25.376142 -45.465675 -0.962768 -19.425196 33.697645 0.000000 0.000000 0.000000
